<mxfile host="Electron" modified="2023-10-19T09:32:16.291Z" agent="Mozilla/5.0 (Windows NT 10.0; Win64; x64) AppleWebKit/537.36 (KHTML, like Gecko) draw.io/22.0.3 Chrome/114.0.5735.289 Electron/25.8.4 Safari/537.36" etag="G6M_IwVShI_kLFQXW6Nn" version="22.0.3" type="device">
  <diagram name="PÃ¡gina-1" id="rmVbs38-IDI4yw4TtQMO">
    <mxGraphModel dx="712" dy="827" grid="1" gridSize="10" guides="1" tooltips="1" connect="1" arrows="1" fold="1" page="1" pageScale="1" pageWidth="827" pageHeight="1169" math="0" shadow="0">
      <root>
        <mxCell id="0" />
        <mxCell id="1" parent="0" />
        <mxCell id="xaSok-qgySFpvEk_lMrg-22" value="" style="endArrow=none;html=1;rounded=0;entryX=0.5;entryY=0;entryDx=0;entryDy=0;exitX=0.5;exitY=1;exitDx=0;exitDy=0;" edge="1" parent="1" source="xaSok-qgySFpvEk_lMrg-16" target="xaSok-qgySFpvEk_lMrg-20">
          <mxGeometry relative="1" as="geometry">
            <mxPoint x="150" y="330" as="sourcePoint" />
            <mxPoint x="310" y="330" as="targetPoint" />
          </mxGeometry>
        </mxCell>
        <mxCell id="xaSok-qgySFpvEk_lMrg-1" value="categoria" style="whiteSpace=wrap;html=1;align=center;" vertex="1" parent="1">
          <mxGeometry x="170" y="230" width="100" height="40" as="geometry" />
        </mxCell>
        <mxCell id="xaSok-qgySFpvEk_lMrg-14" value="" style="endArrow=none;html=1;rounded=0;entryX=0.5;entryY=1;entryDx=0;entryDy=0;exitX=0.5;exitY=0;exitDx=0;exitDy=0;" edge="1" parent="1" source="xaSok-qgySFpvEk_lMrg-10" target="xaSok-qgySFpvEk_lMrg-1">
          <mxGeometry relative="1" as="geometry">
            <mxPoint x="140" y="430" as="sourcePoint" />
            <mxPoint x="300" y="430" as="targetPoint" />
          </mxGeometry>
        </mxCell>
        <mxCell id="xaSok-qgySFpvEk_lMrg-15" value="" style="endArrow=none;html=1;rounded=0;entryX=0.5;entryY=1;entryDx=0;entryDy=0;exitX=0.5;exitY=0;exitDx=0;exitDy=0;" edge="1" parent="1" target="xaSok-qgySFpvEk_lMrg-10">
          <mxGeometry relative="1" as="geometry">
            <mxPoint x="220" y="380" as="sourcePoint" />
            <mxPoint x="220" y="270" as="targetPoint" />
          </mxGeometry>
        </mxCell>
        <mxCell id="xaSok-qgySFpvEk_lMrg-10" value="pertenecen" style="shape=rhombus;perimeter=rhombusPerimeter;whiteSpace=wrap;html=1;align=center;" vertex="1" parent="1">
          <mxGeometry x="175" y="300" width="90" height="40" as="geometry" />
        </mxCell>
        <mxCell id="xaSok-qgySFpvEk_lMrg-16" value="articulo" style="whiteSpace=wrap;html=1;align=center;" vertex="1" parent="1">
          <mxGeometry x="170" y="380" width="100" height="40" as="geometry" />
        </mxCell>
        <mxCell id="xaSok-qgySFpvEk_lMrg-20" value="Unidad de medida" style="whiteSpace=wrap;html=1;align=center;" vertex="1" parent="1">
          <mxGeometry x="170" y="520" width="100" height="40" as="geometry" />
        </mxCell>
        <mxCell id="xaSok-qgySFpvEk_lMrg-21" value="es medido" style="shape=rhombus;perimeter=rhombusPerimeter;whiteSpace=wrap;html=1;align=center;" vertex="1" parent="1">
          <mxGeometry x="182.5" y="450" width="75" height="40" as="geometry" />
        </mxCell>
        <mxCell id="xaSok-qgySFpvEk_lMrg-24" value="provedores" style="whiteSpace=wrap;html=1;align=center;" vertex="1" parent="1">
          <mxGeometry x="390" y="500" width="100" height="40" as="geometry" />
        </mxCell>
        <mxCell id="xaSok-qgySFpvEk_lMrg-25" value="" style="endArrow=none;html=1;rounded=0;entryX=0;entryY=0;entryDx=0;entryDy=0;" edge="1" parent="1" source="xaSok-qgySFpvEk_lMrg-28" target="xaSok-qgySFpvEk_lMrg-24">
          <mxGeometry relative="1" as="geometry">
            <mxPoint x="260" y="420" as="sourcePoint" />
            <mxPoint x="420" y="420" as="targetPoint" />
          </mxGeometry>
        </mxCell>
        <mxCell id="xaSok-qgySFpvEk_lMrg-29" value="" style="endArrow=none;html=1;rounded=0;entryX=0;entryY=0;entryDx=0;entryDy=0;" edge="1" parent="1" target="xaSok-qgySFpvEk_lMrg-28">
          <mxGeometry relative="1" as="geometry">
            <mxPoint x="260" y="420" as="sourcePoint" />
            <mxPoint x="364" y="480" as="targetPoint" />
          </mxGeometry>
        </mxCell>
        <mxCell id="xaSok-qgySFpvEk_lMrg-28" value="suministran" style="shape=rhombus;perimeter=rhombusPerimeter;whiteSpace=wrap;html=1;align=center;" vertex="1" parent="1">
          <mxGeometry x="270" y="430" width="120" height="60" as="geometry" />
        </mxCell>
        <mxCell id="xaSok-qgySFpvEk_lMrg-31" value="1:m" style="text;strokeColor=none;fillColor=none;spacingLeft=4;spacingRight=4;overflow=hidden;rotatable=0;points=[[0,0.5],[1,0.5]];portConstraint=eastwest;fontSize=12;whiteSpace=wrap;html=1;" vertex="1" parent="1">
          <mxGeometry x="175" y="270" width="40" height="30" as="geometry" />
        </mxCell>
      </root>
    </mxGraphModel>
  </diagram>
</mxfile>
